<svg width="125" height="125" viewBox="0 0 125 125" fill="none" xmlns="http://www.w3.org/2000/svg"><path d="M54.2026 16.9193C53.9722 16.9541 53.7619 16.9025 53.5716 16.7647C53.3808 16.624 53.2678 16.437 53.2327 16.2039C53.1979 15.9735 53.2511 15.7644 53.3922 15.5764C53.5329 15.3856 53.7185 15.2729 53.9488 15.2381C54.1792 15.2033 54.3897 15.2562 54.5805 15.3969C54.7708 15.5348 54.8833 15.7189 54.9181 15.9493C54.9414 16.1038 54.9235 16.2516 54.8643 16.3927C54.8076 16.5306 54.7217 16.647 54.6067 16.7419C54.4918 16.8368 54.3571 16.896 54.2026 16.9193Z" fill="black"/><path d="M34.8962 20.2013L36.7694 23.6065L35.6533 24.221L32.4983 18.4861L33.5697 17.8962L34.0832 18.8296L34.1541 18.7906C34.119 18.4143 34.1913 18.0566 34.3712 17.7176C34.5536 17.3772 34.8601 17.0885 35.2906 16.8515C35.6813 16.6363 36.0687 16.5301 36.4527 16.5327C36.8354 16.5328 37.1959 16.6489 37.5343 16.8809C37.8728 17.1129 38.172 17.4654 38.4322 17.9384L40.439 21.5862L39.3228 22.2007L37.39 18.6873C37.1613 18.2716 36.8744 18.0064 36.5291 17.8916C36.1825 17.7743 35.8201 17.8198 35.4418 18.0281C35.183 18.1706 34.9836 18.3533 34.8436 18.5763C34.7062 18.798 34.6385 19.0493 34.6407 19.3302C34.644 19.6073 34.7291 19.8977 34.8962 20.2013Z" fill="black"/><path d="M23.5842 36.45L17.3662 33.6429L18.2244 32.6442L22.7048 34.8056L22.7465 34.7572L19.9408 30.6469L20.799 29.6482L25.2605 31.7989L25.3021 31.7505L22.5043 27.6637L23.3625 26.6651L27.0725 32.3906L26.2254 33.3763L21.7759 31.3033L21.712 31.3776L24.4285 35.4674L23.5842 36.45Z" fill="black"/><path d="M18.3733 48.3714C18.1622 48.9476 17.846 49.402 17.4246 49.7347C17.0033 50.0674 16.5117 50.2655 15.95 50.3289C15.3882 50.3922 14.7899 50.3076 14.1551 50.0749C13.5176 49.8412 13.0036 49.5181 12.6131 49.1057C12.2226 48.6933 11.974 48.2239 11.8672 47.6977C11.7604 47.1714 11.8126 46.6201 12.0236 46.0439C12.2347 45.4677 12.5509 45.0133 12.9722 44.6806C13.3936 44.3479 13.8865 44.1503 14.4509 44.0879C15.0153 44.0255 15.6163 44.1112 16.2538 44.3448C16.8886 44.5775 17.3999 44.8996 17.7878 45.3111C18.1756 45.7225 18.4229 46.1914 18.5297 46.7177C18.6364 47.244 18.5843 47.7952 18.3733 48.3714ZM17.3705 47.9993C17.5073 47.6258 17.5219 47.2802 17.4144 46.9624C17.3069 46.6447 17.1106 46.367 16.8255 46.1293C16.5414 45.889 16.202 45.6965 15.8072 45.5518C15.4151 45.4081 15.033 45.3361 14.661 45.3359C14.2872 45.332 13.9554 45.4161 13.6654 45.5882C13.3755 45.7603 13.1621 46.0331 13.0253 46.4066C12.8876 46.7827 12.8733 47.1315 12.9825 47.4529C13.0926 47.7716 13.2911 48.0517 13.5779 48.2929C13.863 48.5306 14.2016 48.7213 14.5937 48.865C14.9885 49.0097 15.3714 49.0835 15.7425 49.0864C16.1145 49.0866 16.4442 49.0002 16.7315 48.8271C17.0197 48.6514 17.2327 48.3754 17.3705 47.9993Z" fill="black"/><path d="M16.2587 62.8054C16.236 63.3333 16.0809 63.7987 15.7935 64.2015C15.5033 64.6013 15.1019 64.9082 14.5894 65.1221C14.0742 65.3331 13.4632 65.4234 12.7565 65.393C12.0498 65.3626 11.4503 65.2188 10.958 64.9616C10.4659 64.7015 10.0954 64.3586 9.8464 63.9327C9.59742 63.5068 9.48422 63.0313 9.50681 62.5063C9.52426 62.1004 9.60642 61.7769 9.75328 61.5359C9.89742 61.2918 10.0618 61.1055 10.2465 60.977C10.4313 60.8456 10.5935 60.7445 10.733 60.6738L10.7363 60.5971L7.49639 60.4577L7.55113 59.1847L16.2703 59.56L16.2169 60.8032L15.1993 60.7594L15.1948 60.8658C15.3305 60.9484 15.4847 61.066 15.6573 61.2184C15.83 61.368 15.9777 61.5706 16.1004 61.8261C16.223 62.0816 16.2758 62.4081 16.2587 62.8054ZM15.1852 62.4777C15.2009 62.1116 15.1177 61.798 14.9356 61.5371C14.7507 61.2732 14.488 61.0686 14.1473 60.9231C13.8068 60.7748 13.4066 60.6908 12.9468 60.671C12.4927 60.6514 12.0925 60.6996 11.7463 60.8155C11.4001 60.9314 11.1265 61.1116 10.9254 61.356C10.7244 61.6004 10.6159 61.9085 10.5999 62.2803C10.5834 62.6635 10.669 62.9871 10.8567 63.2511C11.0444 63.5151 11.3072 63.7198 11.645 63.8651C11.9829 64.0076 12.3676 64.0881 12.799 64.1067C13.2361 64.1255 13.632 64.0772 13.9868 63.9616C14.3415 63.8461 14.6265 63.665 14.8419 63.4183C15.0545 63.1687 15.1689 62.8552 15.1852 62.4777Z" fill="black"/><path d="M10.144 78.9025L18.4579 76.2484L18.8451 77.4623L10.5312 80.1164L10.144 78.9025Z" fill="black"/><path d="M12.6392 85.2235L20.5589 81.5568L21.0938 82.7132L13.1742 86.3799L12.6392 85.2235Z" fill="black"/><path d="M26.8955 91.3641C27.2652 91.8538 27.4757 92.366 27.5269 92.9006C27.5781 93.4352 27.4781 93.9558 27.227 94.4624C26.9759 94.969 26.5806 95.4262 26.0411 95.8338C25.4994 96.2431 24.9495 96.5001 24.3914 96.6049C23.8333 96.7097 23.3043 96.6643 22.8043 96.4688C22.3043 96.2733 21.8694 95.9307 21.4997 95.441C21.13 94.9512 20.9195 94.4391 20.8683 93.9045C20.8171 93.3699 20.9182 92.8484 21.1716 92.3401C21.425 91.8317 21.8225 91.3729 22.3643 90.9636C22.9037 90.556 23.4514 90.3007 24.0072 90.1976C24.563 90.0946 25.0909 90.1408 25.5909 90.3363C26.0909 90.5317 26.5257 90.8744 26.8955 91.3641ZM26.0395 92.0055C25.7999 91.6881 25.5174 91.4884 25.1922 91.4066C24.867 91.3247 24.5273 91.3392 24.1732 91.4501C23.8174 91.5587 23.4717 91.7398 23.1363 91.9933C22.8031 92.245 22.5356 92.5272 22.3338 92.8399C22.1281 93.152 22.0189 93.4766 22.0064 93.8137C21.9939 94.1507 22.1075 94.4779 22.3471 94.7953C22.5885 95.115 22.8738 95.3161 23.2029 95.3985C23.5304 95.4786 23.8732 95.4635 24.2313 95.3532C24.5854 95.2423 24.9291 95.061 25.2623 94.8092C25.5977 94.5558 25.8672 94.2738 26.0707 93.9634C26.2725 93.6507 26.3785 93.3267 26.3887 92.9914C26.3973 92.6538 26.2809 92.3252 26.0395 92.0055Z" fill="black"/><path d="M35.5676 99.5976L31.4703 104.702L30.5102 103.931L31.1611 103.12L31.1079 103.077C30.7944 103.277 30.4571 103.362 30.0961 103.33C29.7311 103.299 29.3991 103.164 29.1001 102.924C29.0381 102.874 28.9668 102.813 28.8861 102.741C28.8033 102.667 28.7402 102.607 28.6968 102.561L29.4597 101.611C29.4907 101.654 29.5518 101.723 29.643 101.818C29.7325 101.916 29.8281 102.005 29.93 102.087C30.1648 102.276 30.4141 102.394 30.6779 102.442C30.9378 102.49 31.1911 102.47 31.4379 102.38C31.6829 102.293 31.8943 102.138 32.0722 101.917L34.5743 98.7997L35.5676 99.5976Z" fill="black"/><path d="M44.3535 104.26C44.9272 104.529 45.3603 104.891 45.6529 105.344C45.9416 105.8 46.0889 106.309 46.0945 106.874C46.1002 107.438 45.9639 108.017 45.6857 108.612C45.4039 109.214 45.042 109.692 44.6 110.046C44.1569 110.403 43.6686 110.616 43.1354 110.683C42.6021 110.75 42.0564 110.652 41.4981 110.391C41.0479 110.18 40.6857 109.908 40.4115 109.576C40.1362 109.246 39.9603 108.882 39.8839 108.482C39.8049 108.081 39.8382 107.671 39.9837 107.253L41.1067 107.779C41.0383 108.086 41.0678 108.392 41.1951 108.696C41.3199 108.999 41.5662 109.237 41.9341 109.409C42.2556 109.56 42.5771 109.607 42.8984 109.55C43.2159 109.495 43.5145 109.343 43.794 109.095C44.0723 108.849 44.3102 108.515 44.5077 108.093C44.71 107.66 44.819 107.257 44.8348 106.881C44.8505 106.506 44.7791 106.176 44.6205 105.891C44.4594 105.606 44.2155 105.386 43.8887 105.233C43.6701 105.131 43.4533 105.078 43.2385 105.075C43.0198 105.073 42.8145 105.119 42.6226 105.214C42.428 105.308 42.2563 105.451 42.1075 105.641L40.9845 105.115C41.2051 104.751 41.4901 104.467 41.8394 104.264C42.1887 104.06 42.5786 103.955 43.0092 103.946C43.4372 103.936 43.8853 104.041 44.3535 104.26Z" fill="black"/>
<path d="M53.3206 112.114L54.4932 112.098C54.5172 112.251 54.5704 112.402 54.6527 112.551C54.7322 112.699 54.8521 112.829 55.0123 112.942C55.1725 113.054 55.3829 113.132 55.6437 113.174C55.9998 113.232 56.3101 113.2 56.5744 113.079C56.8382 112.961 56.9904 112.777 57.031 112.527C57.0661 112.312 57.0144 112.125 56.876 111.967C56.7376 111.809 56.4971 111.659 56.1547 111.517L55.1667 111.115C54.5945 110.881 54.1859 110.597 53.9407 110.264C53.6956 109.93 53.6101 109.535 53.6844 109.078C53.7472 108.691 53.9155 108.364 54.189 108.098C54.4593 107.834 54.8074 107.649 55.2333 107.542C55.6565 107.435 56.1289 107.424 56.6504 107.509C57.3739 107.627 57.9391 107.877 58.346 108.26C58.7525 108.646 58.9612 109.133 58.972 109.722L57.7264 109.709C57.7021 109.38 57.5855 109.115 57.3763 108.914C57.1668 108.716 56.8727 108.586 56.4941 108.524C56.0819 108.457 55.7386 108.489 55.464 108.62C55.189 108.754 55.0312 108.946 54.9907 109.195C54.9579 109.397 55.006 109.579 55.1351 109.741C55.2614 109.903 55.4731 110.044 55.7702 110.164L56.8248 110.581C57.4053 110.817 57.8157 111.108 58.0557 111.455C58.293 111.802 58.3743 112.205 58.2996 112.665C58.2376 113.046 58.0768 113.362 57.8172 113.614C57.5577 113.865 57.227 114.04 56.8253 114.139C56.4231 114.24 55.9795 114.252 55.4944 114.173C54.7962 114.059 54.2712 113.819 53.9194 113.451C53.5672 113.085 53.3675 112.64 53.3206 112.114Z" fill="black"/>
<path d="M71.1171 106.945C71.3464 106.904 71.558 106.95 71.752 107.083C71.9464 107.219 72.0644 107.402 72.1058 107.635C72.1467 107.864 72.0991 108.074 71.963 108.266C71.8275 108.461 71.645 108.578 71.4157 108.619C71.1864 108.66 70.9745 108.613 70.78 108.477C70.5861 108.345 70.4687 108.164 70.4278 107.934C70.4003 107.78 70.4143 107.632 70.4696 107.49C70.5227 107.35 70.6054 107.232 70.7178 107.134C70.8302 107.036 70.9633 106.973 71.1171 106.945Z" fill="black"/>
<path d="M90.3287 103.148L88.365 99.794L89.4644 99.1499L92.7716 104.798L91.7164 105.417L91.1781 104.497L91.1082 104.538C91.1535 104.913 91.0907 105.273 90.9199 105.617C90.7467 105.962 90.4481 106.259 90.0241 106.507C89.6392 106.733 89.2548 106.849 88.8709 106.857C88.4883 106.867 88.1248 106.761 87.7803 106.538C87.4359 106.315 87.1272 105.97 86.8545 105.505L84.7509 101.912L85.8502 101.268L87.8763 104.728C88.116 105.138 88.41 105.395 88.7582 105.5C89.1078 105.608 89.4689 105.553 89.8414 105.335C90.0963 105.186 90.2908 104.998 90.4247 104.771C90.5562 104.546 90.6171 104.293 90.6074 104.012C90.5967 103.735 90.5038 103.447 90.3287 103.148Z" fill="black"/>
<path d="M101.202 86.6022L107.493 89.2419L106.662 90.2632L102.125 88.2224L102.085 88.272L104.999 92.3057L104.168 93.327L99.6507 91.2964L99.6104 91.346L102.517 95.3564L101.685 96.3776L97.8235 90.7534L98.6439 89.7454L103.147 91.6986L103.209 91.6226L100.384 87.6069L101.202 86.6022Z" fill="black"/>
<path d="M106.092 74.5457C106.288 73.964 106.592 73.5013 107.004 73.1574C107.416 72.8136 107.902 72.6025 108.462 72.5241C109.022 72.4457 109.622 72.5143 110.263 72.7299C110.907 72.9464 111.429 73.2556 111.831 73.6575C112.232 74.0593 112.493 74.5218 112.614 75.045C112.735 75.5683 112.697 76.1207 112.502 76.7024C112.306 77.284 112.002 77.7467 111.59 78.0906C111.178 78.4344 110.69 78.6451 110.128 78.7226C109.565 78.8001 108.962 78.7306 108.319 78.514C107.678 78.2984 107.158 77.9901 106.759 77.5892C106.361 77.1883 106.101 76.7262 105.98 76.203C105.859 75.6797 105.897 75.1273 106.092 74.5457ZM107.105 74.8908C106.978 75.2678 106.972 75.6137 107.088 75.9285C107.204 76.2432 107.408 76.5156 107.699 76.7455C107.99 76.9781 108.334 77.1615 108.733 77.2956C109.129 77.4287 109.512 77.4905 109.884 77.4807C110.258 77.4746 110.588 77.3816 110.873 77.2018C111.158 77.022 111.364 76.7436 111.491 76.3667C111.618 75.987 111.623 75.6379 111.506 75.3196C111.387 75.0039 111.181 74.7293 110.888 74.4958C110.597 74.2658 110.253 74.0843 109.857 73.9511C109.459 73.817 109.074 73.7535 108.703 73.7605C108.331 73.7703 108.004 73.8655 107.721 74.0462C107.438 74.2296 107.232 74.5111 107.105 74.8908Z" fill="black"/><path d="M107.82 60.0602C107.829 59.5319 107.971 59.0625 108.248 58.6522C108.527 58.2448 108.92 57.9272 109.427 57.6996C109.936 57.4749 110.545 57.3683 111.252 57.3798C111.959 57.3913 112.562 57.519 113.061 57.763C113.56 58.0097 113.94 58.3426 114.2 58.7617C114.46 59.1808 114.586 59.653 114.578 60.1785C114.571 60.5847 114.497 60.9103 114.357 61.1552C114.22 61.403 114.06 61.5936 113.879 61.7271C113.698 61.8633 113.538 61.9687 113.401 62.0432L113.4 62.1199L116.642 62.1726L116.621 63.4465L107.895 63.3048L107.915 62.0606L108.934 62.0772L108.936 61.9706C108.798 61.8917 108.64 61.7783 108.464 61.6305C108.287 61.4856 108.134 61.2871 108.005 61.0349C107.875 60.7828 107.814 60.4579 107.82 60.0602ZM108.902 60.3591C108.896 60.7255 108.988 61.0367 109.177 61.2926C109.369 61.5515 109.637 61.749 109.981 61.8853C110.325 62.0245 110.728 62.0978 111.188 62.1053C111.642 62.1126 112.041 62.0538 112.384 61.9286C112.727 61.8035 112.996 61.6161 113.19 61.3664C113.385 61.1167 113.485 60.8058 113.491 60.4336C113.497 60.0502 113.403 59.729 113.208 59.4701C113.014 59.2112 112.745 59.0137 112.404 58.8774C112.062 58.744 111.675 58.6738 111.244 58.6668C110.806 58.6597 110.412 58.7186 110.06 58.8436C109.709 58.9686 109.429 59.1573 109.22 59.4096C109.014 59.6648 108.908 59.9813 108.902 60.3591Z" fill="black"/><path d="M113.502 43.8051L105.262 46.6808L104.843 45.4777L113.083 42.602L113.502 43.8051Z" fill="black"/>
<path d="M110.839 37.5532L103.02 41.4305L102.454 40.2888L110.273 36.4115L110.839 37.5532Z" fill="black"/><path d="M96.4233 31.7964C96.0406 31.3167 95.8165 30.8104 95.751 30.2773C95.6855 29.7443 95.7715 29.2212 96.009 28.708C96.2465 28.1949 96.6294 27.7273 97.1578 27.3054C97.6883 26.8818 98.2312 26.6101 98.7862 26.4905C99.3413 26.3708 99.8714 26.402 100.376 26.584C100.881 26.7661 101.325 27.0969 101.708 27.5766C102.091 28.0563 102.315 28.5626 102.38 29.0956C102.446 29.6287 102.359 30.1526 102.119 30.6676C101.879 31.1825 101.494 31.6518 100.964 32.0755C100.435 32.4974 99.8946 32.7673 99.3418 32.8852C98.7889 33.0031 98.26 32.971 97.7549 32.789C97.2499 32.6069 96.806 32.2761 96.4233 31.7964ZM97.2618 31.1323C97.5098 31.4432 97.7975 31.6352 98.1248 31.7084C98.4521 31.7815 98.7912 31.7579 99.1423 31.6376C99.495 31.5195 99.8357 31.3292 100.164 31.0669C100.491 30.8063 100.75 30.517 100.944 30.1991C101.141 29.8815 101.242 29.5541 101.245 29.2169C101.249 28.8796 101.126 28.5556 100.878 28.2447C100.628 27.9315 100.338 27.7382 100.007 27.6646C99.677 27.5933 99.3348 27.6175 98.9798 27.7374C98.6287 27.8577 98.2901 28.0482 97.9637 28.3088C97.6352 28.5711 97.3733 28.8602 97.1782 29.1759C96.9849 29.4939 96.8876 29.8206 96.8863 30.1561C96.8868 30.4938 97.012 30.8192 97.2618 31.1323Z" fill="black"/>
<path d="M87.5342 23.7977L91.4935 18.5856L92.4739 19.3309L91.845 20.1589L91.8993 20.2001C92.2073 19.9918 92.5422 19.8985 92.904 19.9201C93.2697 19.9412 93.6052 20.0678 93.9105 20.2999C93.9738 20.348 94.0467 20.407 94.1293 20.4769C94.214 20.5485 94.2787 20.6066 94.3233 20.6512L93.5861 21.6217C93.554 21.5794 93.491 21.512 93.3973 21.4193C93.3053 21.3244 93.2073 21.2374 93.1033 21.1583C92.8635 20.976 92.6112 20.8644 92.3461 20.8235C92.0851 20.7821 91.8324 20.8095 91.5881 20.9057C91.3455 20.9996 91.1382 21.1597 90.9664 21.3859L88.5485 24.5689L87.5342 23.7977Z" fill="black"/><path d="M78.6269 19.3718C78.0462 19.1185 77.6036 18.7689 77.299 18.323C76.9981 17.8757 76.8373 17.37 76.8166 16.8062C76.7958 16.2423 76.9165 15.6596 77.1787 15.058C77.4443 14.4486 77.7933 13.9608 78.2257 13.5946C78.6591 13.2258 79.1415 13.0007 79.6728 12.9194C80.204 12.8381 80.7522 12.9207 81.3173 13.1672C81.773 13.366 82.1423 13.6278 82.4253 13.9527C82.7093 14.275 82.8949 14.6349 82.982 15.0324C83.0716 15.4311 83.0493 15.8413 82.9151 16.2631L81.7784 15.7673C81.8385 15.4588 81.8009 15.1541 81.6655 14.8533C81.5327 14.5536 81.2801 14.3226 80.9077 14.1602C80.5822 14.0182 80.2596 13.9797 79.94 14.0449C79.624 14.1085 79.3297 14.2683 79.0569 14.5244C78.7853 14.7779 78.5564 15.1181 78.3702 15.5452C78.1795 15.9827 78.0814 16.3893 78.0757 16.765C78.07 17.1406 78.1502 17.4685 78.3163 17.7486C78.485 18.0299 78.7348 18.2427 79.0655 18.3869C79.2868 18.4835 79.5049 18.5306 79.7198 18.5282C79.9384 18.5244 80.1423 18.4723 80.3317 18.3721C80.5237 18.2729 80.6915 18.1261 80.8352 17.9315L81.9718 18.4273C81.761 18.7972 81.4837 19.0884 81.14 19.3011C80.7963 19.5138 80.4093 19.6302 79.9791 19.6502C79.5515 19.6714 79.1008 19.5786 78.6269 19.3718Z" fill="black"/><path d="M69.4527 11.7612L68.2809 11.8091C68.2528 11.6562 68.1956 11.5066 68.1093 11.3602C68.0259 11.2142 67.9026 11.0871 67.7394 10.979C67.5763 10.871 67.3638 10.7992 67.102 10.7638C66.7445 10.7155 66.4352 10.7554 66.1742 10.8835C65.9136 11.0088 65.7664 11.1967 65.7325 11.4473C65.7032 11.664 65.7599 11.8494 65.9025 12.0035C66.0451 12.1575 66.2894 12.3009 66.6356 12.4337L67.634 12.8096C68.2122 13.0282 68.6283 13.3009 68.8823 13.6277C69.1362 13.9544 69.2322 14.3473 69.1702 14.8062C69.1177 15.1947 68.9583 15.5257 68.692 15.7993C68.4289 16.0705 68.0858 16.2649 67.6629 16.3826C67.2427 16.5006 66.7708 16.5243 66.2472 16.4534C65.5208 16.3552 64.9491 16.1202 64.5321 15.7485C64.1154 15.3739 63.8938 14.8924 63.8673 14.304L65.1128 14.2833C65.1458 14.6117 65.2695 14.8735 65.484 15.0688C65.6988 15.2612 65.9962 15.3832 66.3762 15.4346C66.7901 15.4905 67.1325 15.4494 67.4034 15.3112C67.6748 15.1701 67.8274 14.9743 67.8612 14.7238C67.8886 14.521 67.8356 14.3404 67.7022 14.1819C67.5717 14.0238 67.3563 13.8886 67.0561 13.7763L65.9907 13.3871C65.4041 13.1673 64.9861 12.8872 64.7368 12.5467C64.4904 12.2067 64.3984 11.8058 64.4607 11.3441C64.5125 10.9612 64.6647 10.6406 64.9175 10.3824C65.1703 10.1242 65.4961 9.94034 65.8951 9.83088C66.2944 9.71861 66.7375 9.69541 67.2246 9.76128C67.9256 9.85608 68.4568 10.0827 68.8183 10.4412C69.1802 10.7969 69.3917 11.2369 69.4527 11.7612Z" fill="black"/>
</svg>
